<svg xmlns="http://www.w3.org/2000/svg" viewBox="278.141 291.323 220.674 220.677"><path d="M455.271 380.385c-19.131-1.098-35.876 9.454-43.908 25.2-1.773 3.477-4.729 6.208-8.434 7.433l-.138.045c-3.15 1.038-6.298-1.647-5.804-4.928a124.291 124.291 0 015.049-20.96c1.227-3.665 3.91-6.608 7.357-8.357 15.79-8.015 26.378-24.784 25.279-43.947-1.344-23.427-20.833-42.564-44.278-43.509-26.426-1.066-48.184 20.042-48.184 46.231 0 18.041 10.345 33.63 25.413 41.253 3.416 1.728 6.067 4.65 7.284 8.28a124.45 124.45 0 015.066 21.009c.493 3.28-2.654 5.966-5.804 4.928a7.856 7.856 0 01-.142-.047c-3.702-1.225-6.656-3.954-8.428-7.428-8.03-15.748-24.776-26.302-43.91-25.204-23.427 1.344-42.564 20.833-43.509 44.278-1.065 26.426 20.043 48.184 46.231 48.184 17.983 0 33.528-10.278 41.178-25.265 1.78-3.487 4.748-6.225 8.464-7.454l.129-.043c3.152-1.038 6.291 1.65 5.804 4.932-3.267 21.981-12.277 42.084-25.455 58.745-2.636 3.333-.195 8.238 4.055 8.238h59.784c4.25 0 6.691-4.905 4.055-8.238-13.178-16.661-22.188-36.764-25.455-58.745-.488-3.283 2.651-5.97 5.804-4.932l.129.043c3.717 1.229 6.684 3.968 8.464 7.454 7.65 14.988 23.195 25.265 41.178 25.265 26.19 0 47.297-21.759 46.231-48.184-.941-23.444-20.078-42.933-43.505-44.277z" fill="#515262"/><g fill="#464655"><path d="M308.65 424.663c.77-19.103 13.619-35.573 31.022-41.748a46.187 46.187 0 00-17.982-2.531c-23.427 1.344-42.564 20.833-43.508 44.278-1.065 26.426 20.043 48.184 46.231 48.184 5.354 0 10.483-.929 15.261-2.604-18.64-6.493-31.871-24.535-31.024-45.579zM378.26 367.908c-2.207-7.398-5.582-22.033-5.582-30.313 0-22.934 12.96-37.32 31-43.635-4.205-1.494-8.663-2.41-13.283-2.596-26.427-1.066-48.184 20.042-48.184 46.231 0 17.268 9.489 32.268 23.513 40.208.629.356 1.253.717 1.9 1.044 3.416 1.729 6.069 4.65 7.284 8.28a124.354 124.354 0 015.066 21.009c.425 2.821-1.849 5.188-4.497 5.137l.01.035c1.078.375 7.766 1.109 9.191-3.328 1.384-4.303-.792-23.214-6.418-42.072zM455.271 380.385c-19.131-1.098-35.876 9.454-43.908 25.2-1.773 3.477-4.729 6.208-8.434 7.433-.046.015-1.052.269-1.494.274 0 0 17.234 2.395 31.021-15.908 8.131-10.794 16.877-15.213 27.98-16.367-1.696-.299-3.413-.532-5.165-.632zM455.271 472.765c-19.131 1.098-35.876-9.454-43.908-25.2-1.773-3.477-4.729-6.208-8.434-7.433-.046-.015-1.052-.269-1.494-.274 0 0 17.234-2.395 31.021 15.908 8.131 10.794 16.877 15.213 27.98 16.367-1.696.299-3.413.531-5.165.632zM377.057 503.762c5.878-14.782 11.82-56.143 1.751-62.445 0 0 1.396 2.254 1.181 3.7-3.267 21.981-12.277 42.084-25.455 58.745-2.636 3.333-.195 8.238 4.055 8.238h22.523c-4.249 0-5.625-4.289-4.055-8.238z"/></g></svg>