<svg xmlns="http://www.w3.org/2000/svg" viewBox="269.317 0 238.328 238.365"><path d="M395.166 3.298c28.597 36.988 72.201 80.599 109.183 109.201a8.424 8.424 0 010 13.367c-36.982 28.602-80.586 72.212-109.183 109.201a8.423 8.423 0 01-13.368 0c-28.597-36.988-72.201-80.599-109.183-109.201a8.424 8.424 0 010-13.367C309.596 83.897 353.2 40.286 381.797 3.298a8.424 8.424 0 0113.369 0z" fill="#ff6464"/><path d="M387.453 235.065c-13.19-36.988-33.3-80.599-50.356-109.201-2.027-3.399-2.027-9.968 0-13.367 17.056-28.602 37.167-72.212 50.356-109.201.655-1.838 1.992-2.645 3.14-3.003-3.121-.808-6.61.177-8.796 3.003-28.597 36.989-72.201 80.6-109.183 109.201a8.424 8.424 0 000 13.367c36.982 28.601 80.586 72.212 109.183 109.201 2.185 2.826 5.675 3.811 8.795 3.003-1.147-.357-2.483-1.164-3.139-3.003z" fill="#d2555a"/></svg>