<svg xmlns="http://www.w3.org/2000/svg" viewBox="4.659 306.239 229.502 205.763"><path d="M4.66 369.533c0-34.956 28.174-63.293 62.928-63.293 17.226 0 32.822 6.971 44.179 18.254 4.212 4.183 11.076 4.183 15.287 0 11.358-11.282 26.954-18.254 44.179-18.254 34.754 0 62.928 28.337 62.928 63.293 0 65.369-84.175 124.837-108.338 140.56a11.74 11.74 0 01-12.826 0C88.836 494.37 4.66 434.903 4.66 369.533" fill="#ff6464"/><path d="M93.181 311.762c-7.824-3.519-16.466-5.521-25.593-5.521-34.754 0-62.928 28.337-62.928 63.294 0 65.369 84.175 124.837 108.338 140.56a11.744 11.744 0 006.413 1.907c-85.996-117.388-55.397-183.078-26.23-200.24z" fill="#d2555a"/></svg>