<svg xmlns="http://www.w3.org/2000/svg" viewBox="4.355 0 230.111 247.156"><path d="M123.895 1.303a8.563 8.563 0 00-8.969 0C93.7 14.252 4.356 72.745 4.356 139.898c0 34.902 28.249 63.195 63.095 63.195 11.406 0 22.095-3.039 31.32-8.346 2.645-1.522 5.738 1.168 4.7 4.059a140.566 140.566 0 01-20.545 37.771c-3.305 4.332-.131 10.613 5.283 10.613h63.072c5.416 0 8.583-6.284 5.276-10.618a140.53 140.53 0 01-20.374-37.304c-1.043-2.874 2.006-5.569 4.66-4.091a62.523 62.523 0 0030.528 7.916c34.847 0 63.095-28.293 63.095-63.195 0-67.153-89.344-125.646-110.571-138.595z" fill="#515262"/><g fill="#464655"><path d="M93.355 197.488C22.467 158.235 89.05 40.518 120.031.12c-1.754-.129-3.533.223-5.105 1.183C93.7 14.252 4.356 72.745 4.356 139.897c0 34.902 28.249 63.195 63.095 63.195a62.592 62.592 0 0025.904-5.604zM107.518 237.961c4.08-33.915 3.903-43.566-6.535-43.566 1.83.373 3.236 2.327 2.488 4.411a140.525 140.525 0 01-20.545 37.771c-3.305 4.331-.131 10.613 5.283 10.613h23.853c-4.763 0-4.951-5.841-4.544-9.229z"/></g></svg>