<svg height="512pt" viewBox="-14 0 512 512.00096" width="512pt" xmlns="http://www.w3.org/2000/svg"><g fill-rule="evenodd"><path d="m299.472656 163.445312-33.847656-81.765624c-6.859375-16.5-25.941406-24.414063-42.429688-17.578126l-24.042968 9.957032-179.128906 74.261718c-16.488282 6.832032-24.394532 25.933594-17.566407 42.460938l54.679688 132.113281 69.972656 169.050781c6.828125 16.53125 25.941406 24.445313 42.425781 17.582032l203.175782-84.21875c13.832031-5.726563 21.625-20.121094 19.753906-34.34375-.378906-2.714844-1.078125-5.460938-2.1875-8.117188l-44.847656-108.371094zm0 0" fill="#e6e6e6"/><path d="m252.375 274.242188c8.023438-21.261719-2.304688-46.289063-23.019531-55.601563-10.621094-4.789063-21.273438-2.863281-30.203125 3.007813-8.488282 5.605468-15.464844 14.746093-19.375 25.113281-20.6875-9.347657-46.890625-6.046875-54.914063 15.183593-8.050781 21.257813 2.304688 46.285157 22.992188 55.601563l51.296875 23.128906.789062.351563c15.785156 5.546875 25.386719 1.574218 32.332032-13.640625zm0 0" fill="#f74311"/><path d="m484 358.492188v-326.019532c0-17.871094-14.617188-32.472656-32.476562-32.472656h-219.921876c-17.828124 0-32.449218 14.601562-32.449218 32.472656v41.585938l71.832031 216.765625c0 4.175781 121.101563 97.421875 121.480469 100.140625h59.058594c17.859374 0 32.476562-14.601563 32.476562-32.472656zm0 0" fill="#e6e6e6"/><path d="m400.867188 185.347656-51.351563-65.441406c-4.378906-5.546875-11.410156-5.695312-15.671875-.261719l-34.371094 43.800781 45.957032 111.03125c1.398437-.671874 2.742187-1.695312 3.878906-3.15625l51.792968-65.996093c4.234376-5.402344 4.144532-14.398438-.234374-19.976563zm0 0" fill="#f74311"/><path d="m252.375 274.242188c8.023438-21.261719-2.304688-46.289063-23.019531-55.601563-10.621094-4.789063-21.273438-2.863281-30.203125 3.007813-1.429688.960937-2.800782 1.984374-4.140625 3.125 1.371093.085937 2.742187.320312 4.140625.613281 1.957031.4375 3.941406 1.109375 5.925781 2.011719 20.714844 9.316406 31.046875 34.34375 23.019531 55.605468l-20.101562 53.148438c-1.082032 2.363281-2.21875 4.4375-3.445313 6.277344 13.101563 3.242187 21.476563-1.371094 27.722657-15.039063zm0 0" fill="#d92525"/><path d="m299.472656 163.445312-33.847656-81.765624c-6.859375-16.5-25.941406-24.414063-42.429688-17.578126l-11.992187 4.960938-15.375 6.367188h.027344c5.019531-2.074219 10.273437-2.746094 15.347656-2.25 11.585937 1.109374 22.207031 8.410156 26.964844 19.886718l33.847656 81.769532 45.925781 111.027343 41.464844 100.105469 3.414062 8.265625c1.109376 2.65625 1.808594 5.402344 2.1875 8.117187 1.867188 14.222657-5.921874 28.589844-19.753906 34.339844l27.457032-11.386718c13.832031-5.726563 21.625-20.121094 19.753906-34.34375-.378906-2.714844-1.078125-5.460938-2.1875-8.117188l-44.847656-108.371094zm0 0" fill="#c2c7cc"/><path d="m484 358.492188v-326.019532c0-17.871094-14.617188-32.472656-32.476562-32.472656h-35.074219c17.859375 0 32.449219 14.601562 32.449219 32.472656v326.015625c0 17.875-14.589844 32.476563-32.449219 32.476563h35.074219c17.859374 0 32.476562-14.601563 32.476562-32.472656zm0 0" fill="#c2c7cc"/><path d="m400.867188 185.347656-51.351563-65.441406c-4.378906-5.546875-11.410156-5.695312-15.671875-.261719l-7.148438 9.109375 44.734376 57.003906c4.375 5.578126 4.492187 14.570313.230468 19.972657l-35.800781 45.644531 9.570313 23.101562c1.398437-.671874 2.742187-1.695312 3.878906-3.15625l51.792968-65.996093c4.234376-5.402344 4.144532-14.398438-.234374-19.976563zm0 0" fill="#d92525"/></g></svg>